# xmcd
#
# Track frame offsets: 
#        150
#        41865
#        64946
#        91959
#        130038
#        157970
#        198424
#        223728
#        254328
#        282873
#
# Disc length: 4185 seconds
#
# Revision: 1
# Processed by: cddbd v1.5.2PL0 Copyright (c) Steve Scherf et al.
# Submitted via: ExactAudioCopy v0.99pb5
#
DISCID=9210570a
DTITLE=Bireli Lagrene and WDR big band - Djangology
DYEAR=2006
DGENRE=Jazz
TTITLE0=Place du tertre
TTITLE1=Good life
TTITLE2=Djangology
TTITLE3=Impromptu
TTITLE4=The shadow of your smile
TTITLE5=Blues en mineur
TTITLE6=Anouman
TTITLE7=Fleche d'or
TTITLE8=Caravan
TTITLE9=All of me
EXTD=YEAR: 2006
EXTT0=
EXTT1=
EXTT2=
EXTT3=
EXTT4=
EXTT5=
EXTT6=
EXTT7=
EXTT8=
EXTT9=
PLAYORDER=
